<svg width="69" height="21" viewBox="0 0 69 21" fill="none" xmlns="http://www.w3.org/2000/svg">
<path d="M20.144 10.088C20.144 12.832 19.1827 15.1747 17.26 17.116C15.3373 19.0387 13.0133 20 10.288 20H5.472C5.11733 20 4.80933 19.8787 4.548 19.636C4.30533 19.3933 4.184 19.0947 4.184 18.74V16.948C4.184 16.5933 4.30533 16.2947 4.548 16.052C4.80933 15.8093 5.11733 15.688 5.472 15.688H10.288C11.6507 15.688 12.8267 15.1747 13.816 14.148C14.8053 13.1027 15.3 11.8333 15.3 10.34V5.804H5.024V7.036C5.024 7.372 4.89333 7.67067 4.632 7.932C4.38933 8.17467 4.09067 8.296 3.736 8.296H1.776C1.40267 8.296 1.08533 8.17467 0.824 7.932C0.581333 7.67067 0.46 7.372 0.46 7.036V2.724C0.46 2.36933 0.581333 2.07067 0.824 1.828C1.08533 1.58533 1.40267 1.464 1.776 1.464H18.828C19.1827 1.464 19.4907 1.58533 19.752 1.828C20.0133 2.07067 20.144 2.36933 20.144 2.724V10.088ZM45.6813 10.704C45.6813 13.4667 44.6733 15.8093 42.6573 17.732C40.6413 19.636 38.1866 20.588 35.2933 20.588C32.4 20.588 29.9453 19.636 27.9293 17.732C25.9133 15.8093 24.9053 13.4667 24.9053 10.704C24.9053 7.94133 25.9133 5.61733 27.9293 3.732C29.9453 1.828 32.4 0.875999 35.2933 0.875999C38.1866 0.875999 40.6413 1.828 42.6573 3.732C44.6733 5.61733 45.6813 7.94133 45.6813 10.704ZM40.8653 10.704C40.8653 9.11733 40.324 7.80133 39.2413 6.756C38.1586 5.71067 36.8426 5.188 35.2933 5.188C33.744 5.188 32.428 5.71067 31.3453 6.756C30.2626 7.80133 29.7213 9.11733 29.7213 10.704C29.7213 12.2907 30.2626 13.616 31.3453 14.68C32.428 15.744 33.744 16.276 35.2933 16.276C36.8426 16.276 38.1586 15.744 39.2413 14.68C40.324 13.616 40.8653 12.2907 40.8653 10.704ZM69.0007 4.404C69.0007 6.66267 68.3101 8.67867 66.9287 10.452C65.5661 12.2253 63.8301 13.4013 61.7207 13.98C61.6274 13.9987 61.5807 14.0547 61.5807 14.148V18.74C61.5807 19.0947 61.4501 19.3933 61.1887 19.636C60.9274 19.8787 60.6194 20 60.2647 20H58.0527C57.6794 20 57.3621 19.8787 57.1007 19.636C56.8581 19.3933 56.7367 19.0947 56.7367 18.74V14.148C56.7367 14.0547 56.6901 13.9987 56.5967 13.98C54.4687 13.4013 52.7234 12.2347 51.3607 10.48C49.9981 8.70667 49.3167 6.69067 49.3167 4.432V2.724C49.3167 2.36933 49.4381 2.07067 49.6807 1.828C49.9421 1.58533 50.2594 1.464 50.6327 1.464H52.8447C53.1994 1.464 53.5074 1.58533 53.7687 1.828C54.0301 2.07067 54.1607 2.36933 54.1607 2.724V4.404C54.1607 5.916 54.6461 7.19467 55.6167 8.24C56.6061 9.28533 57.7821 9.808 59.1447 9.808C60.5074 9.808 61.6834 9.28533 62.6727 8.24C63.6621 7.19467 64.1567 5.92533 64.1567 4.432V2.724C64.1567 2.36933 64.2781 2.07067 64.5207 1.828C64.7821 1.58533 65.0994 1.464 65.4727 1.464H67.6847C68.0394 1.464 68.3474 1.58533 68.6087 1.828C68.8701 2.07067 69.0007 2.36933 69.0007 2.724V4.404Z" fill="#FFF4CE"/>
</svg>
